<?xml version="1.0" encoding="UTF-8"?>
<svg id="Layer_1" xmlns="http://www.w3.org/2000/svg" version="1.1" viewBox="0 0 199 59">
  <!-- Generator: Adobe Illustrator 29.0.0, SVG Export Plug-In . SVG Version: 2.1.0 Build 186)  -->
  <defs>
    <style>
      .st0 {
        fill: #fff;
      }
    </style>
  </defs>
  <path class="st0" d="M0,0v59h40.6V0H0ZM34.8,53.1H5.9V5.9h28.9v47.1Z"/>
  <path class="st0" d="M64.8,20.6h0c-3.2-5.3-6.5-9.9-9.8-14.6h-2.5v20.5h2.8v-14.7h0c3.3,5.3,6.5,10,9.8,14.7h2.5V5.9h-2.8v14.6ZM84.9,26.5l-6.5-20.5h-2.9l-7,20.5h3l1.8-5.6h6.1l1.6,5.6h3.9ZM74.2,18.3c.8-2.7,1.6-5.2,2.3-8.4h0c.8,3.2,1.5,5.7,2.3,8.4h-4.7ZM88.2,26.5h3.5V8.7h5.3v-2.8h-14.1v2.8h5.3v17.8h0ZM101.5,5.9h-3.4v20.5h3.4V5.9ZM112.3,26.8c5.3,0,8.6-4.8,8.6-10.9s-3.6-10.3-8.6-10.3-8.6,4.6-8.6,10.3,3.3,10.9,8.6,10.9ZM112.3,8.5c3.4,0,4.9,3.6,4.9,7.4s-1.3,8-4.9,8-4.9-4-4.9-8,1.4-7.4,4.9-7.4ZM125.7,11.7h0c3.3,5.3,6.5,10,9.8,14.7h2.5V5.9h-2.8v14.6h0c-3.2-5.3-6.5-9.9-9.8-14.6h-2.5v20.5h2.8s0-14.7,0-14.7ZM143.8,20.9h6.1l1.6,5.6h3.9l-6.5-20.5h-2.9l-7,20.5h3l1.8-5.6ZM147.1,10h0c.8,3.2,1.5,5.7,2.3,8.4h-4.7c.8-2.7,1.6-5.2,2.3-8.4ZM166.7,23.7h-6.9V5.9h-3.4v20.5h10.3v-2.8h0ZM62,49.9c-.7.4-1.5.5-2.4.5-3,0-5.9-2.9-5.9-7.7s2.5-7.6,6.2-7.6,2.8.5,3.7,1.1l1.1-2.4c-1.2-.9-3-1.6-4.9-1.6-6.1,0-9.8,4.9-9.8,10.5s3.8,10.7,9.7,10.7,3.9-.5,5.8-1.3v-8.5h-3.5s0,6.3,0,6.3ZM72.1,43.6h5.7v-2.8h-5.7v-5.6h5.8v-2.8h-9.3v20.5h10.3v-2.8h-6.8v-6.6ZM88.6,32.1c-5,0-8.6,4.6-8.6,10.3s3.3,10.9,8.6,10.9,8.6-4.8,8.6-10.9-3.6-10.3-8.6-10.3ZM88.6,50.4c-3.6,0-4.9-4-4.9-8s1.4-7.4,4.9-7.4,4.9,3.6,4.9,7.4-1.3,8-4.9,8ZM110.4,49.9c-.7.4-1.5.5-2.4.5-3,0-5.9-2.9-5.9-7.7s2.5-7.6,6.2-7.6,2.8.5,3.7,1.1l1.1-2.4c-1.2-.9-3-1.6-4.9-1.6-6.1,0-9.8,4.9-9.8,10.5s3.8,10.7,9.7,10.7,3.9-.5,5.8-1.3v-8.5h-3.5s0,6.3,0,6.3ZM128.8,38.4c0-4-2.4-5.9-6.3-5.9h-5.4v20.5h3.5v-7.7h1.6l3.3,7.7h4l-4.1-8.5c2.2-1.2,3.5-3.6,3.5-6.1ZM122,42.6c-.3,0-1.2,0-1.4,0v-7.5h1.5c2.1,0,3.2,1.2,3.2,3.3,0,2.8-1.6,4-3.3,4.1ZM136.4,32.5l-7,20.5h3l1.8-5.6h6.1l1.6,5.6h3.9l-6.5-20.5h-2.9ZM135.1,44.9c.8-2.7,1.6-5.2,2.3-8.4h0c.8,3.2,1.5,5.7,2.3,8.4h-4.7ZM171.2,40.4h-7.2v-7.9h-3.4v20.5h3.4v-9.9h7.2v9.9h3.5v-20.5h-3.5v7.8ZM178,53h3.4v-20.5h-3.4v20.5ZM193.6,50.4c-3.4,0-6.2-2.9-6.2-7.7s2.6-7.6,6.1-7.6,2.7.6,3.6,1.1l1.1-2.5c-1.2-.8-2.9-1.6-4.7-1.6-6.1,0-9.8,4.9-9.8,10.5s3.8,10.7,9.7,10.7,3.5-.7,4.6-1.4l-1-2.6c-.9.6-2.1,1-3.5,1ZM152.3,32.5h-5.4v20.5h3.5v-7.7h1.6c4.1,0,6.7-3.4,6.7-6.9,0-4-2.4-5.9-6.3-5.9ZM151.8,42.6c-.3,0-1.2,0-1.4,0v-7.5h1.6c2,0,3.2,1.2,3.2,3.3,0,2.8-1.7,4-3.3,4.1Z"/>
</svg>