<?xml version="1.0" encoding="UTF-8"?>
<svg id="Layer_1" data-name="Layer 1" xmlns="http://www.w3.org/2000/svg" viewBox="0 0 98.23 23.81">
  <defs>
    <style>
      .cls-1, .cls-2 {
        fill: #fff;
      }

      .cls-2 {
        fill-rule: evenodd;
      }
    </style>
  </defs>
  <path class="cls-1" d="M3.22,18.34H.52v1.94h2.06c.5,0,.61-.12.61-.12,0,.17-.08.57-.56.57H.52v2.53h3.01s0,.45-.31.45H.64s-.61,0-.61-.37v-5.47h3.5s0,.45-.31.45h0ZM11.06,23.29l-3.03-4.87s.07.36.07.7v4.69s-.49,0-.49-.37v-5.55c.39,0,.68,0,.92.4l2.71,4.38.33.58s-.07-.41-.07-.6v-4.77s.49,0,.49.37v5.55c-.7,0-.93-.52-.93-.52h0ZM19.62,18.34h-1.51v5.47s-.49,0-.49-.37v-5.1h-1.47c-.42,0-.49-.4-.49-.57,0,0,.08.12.62.12h3.2c.54,0,.61-.12.61-.12,0,.17-.06.57-.48.57h0ZM27.13,18.34h-2.7v1.94h2.06c.5,0,.61-.12.61-.12,0,.17-.08.57-.56.57h-2.11v2.53h3.01s0,.45-.31.45h-2.58s-.61,0-.61-.37v-5.47h3.5s0,.45-.31.45h0ZM33.39,20.94c1.23.39,1.77,2.3,2.12,2.85-.39.05-.55,0-.78-.45-.71-1.4-1.08-2.29-2.56-2.4v2.86s-.49,0-.49-.37v-5.55h1.63c1.08,0,1.88.36,1.88,1.38v.25c0,1.01-.76,1.46-1.8,1.42h0ZM33.32,18.34h-1.14v2.19h1.21c.98,0,1.32-.41,1.32-1.14s-.45-1.05-1.39-1.05h0ZM42.65,18.34h-1.51v5.47s-.49,0-.49-.37v-5.1h-1.47c-.42,0-.49-.4-.49-.57,0,0,.08.12.62.12h3.2c.54,0,.61-.12.61-.12,0,.17-.06.57-.48.57h0ZM50.65,23.79c-.61,0-.77-.79-.95-1.43l-.17-.59h-2.66l-.17.59c-.18.64-.34,1.43-.95,1.43-.03,0-.06,0-.08,0,.21-.36.79-2.32,1.23-3.75.51-1.67,1.23-2.18,1.3-2.24.08.06.79.56,1.3,2.24.44,1.43,1.02,3.39,1.23,3.75-.03,0-.06,0-.08,0h0ZM49.08,20.25c-.37-1.24-.87-1.8-.87-1.8,0,0-.5.56-.87,1.8l-.32,1.06h2.39l-.32-1.06h0ZM54.39,23.44v-5.63s.49,0,.49.37v5.63s-.49,0-.49-.37h0ZM62.7,23.29l-3.03-4.87s.07.36.07.7v4.69s-.49,0-.49-.37v-5.55c.39,0,.68,0,.92.4l2.71,4.38.33.58s-.07-.41-.07-.6v-4.77s.49,0,.49.37v5.55c-.7,0-.93-.52-.93-.52h0ZM72.72,23.44v-4.37c0-.34.04-.71.04-.71l-2.04,4.13s-.25,0-.48-.37l-1.79-3.78s.04.39.04.73v4.74s-.49,0-.49-.37v-5.55h.41s.33,0,.51.4l1.66,3.53,1.89-3.93s.72,0,.72.37v5.55s-.49,0-.49-.37h0ZM80.93,18.34h-2.7v1.94h2.06c.5,0,.61-.12.61-.12,0,.17-.08.57-.56.57h-2.11v2.53h3.01s0,.45-.31.45h-2.58s-.61,0-.61-.37v-5.47h3.5s0,.45-.31.45h0ZM88.94,23.29l-3.03-4.87s.07.36.07.7v4.69s-.49,0-.49-.37v-5.55c.39,0,.68,0,.92.4l2.71,4.38.33.58s-.07-.41-.07-.6v-4.77s.49,0,.49.37v5.55c-.7,0-.93-.52-.93-.52h0ZM97.67,18.34h-1.51v5.47s-.49,0-.49-.37v-5.1h-1.47c-.42,0-.49-.4-.49-.57,0,0,.08.12.62.12h3.2c.54,0,.61-.12.61-.12,0,.17-.06.57-.48.57h0Z"/>
  <polygon class="cls-2" points="0 13.03 98.23 13.03 98.23 13.92 0 13.92 0 13.03 0 13.03"/>
  <path class="cls-1" d="M4.52,2.14c-1.34,0-2.31.38-2.31,1.43,0,2.54,6.7.05,6.7,4.92,0,2.28-1.91,3.4-4.52,3.4-1.92,0-4.06-.48-4.06-1.92,0-.4.17-.88.55-1.43,0,1.49,2.01,1.77,3.51,1.77,1.6,0,2.38-.63,2.38-1.68C6.78,5.78.09,8.23.09,3.8.09,1.31,2.07.54,4.5.54c2.21,0,4.04.43,4.04,1.91,0,.42-.17.94-.51,1.55,0-1.54-1.81-1.86-3.52-1.86h0ZM13.53,10.39c.89,0,1.81-.38,1.81-1.61.42.46.65.89.65,1.37,0,.94-.89,1.75-2.74,1.75-2.01,0-3.17-1-3.17-2.71V2.31c.4,0,1.98,0,1.98,1.31v.55h3.14s-.02,1.51-1.14,1.51h-2v3.09c0,1.03.29,1.63,1.46,1.63h0ZM20.05,8.69c-.49,0-.98-.09-1.45-.28v.55c0,.92.55,1.4,1.71,1.4,1.52,0,2.55-.65,2.57-1.57.32.46.48.88.48,1.26,0,1.11-1.28,1.84-3.04,1.84-2.34,0-3.71-1.01-3.71-2.71v-2.87c0-1.69,1.2-2.71,3.4-2.71s3.24,1.01,3.24,2.55c0,1.31-.77,2.52-3.2,2.52h0ZM19.94,5.07c-1.05,0-1.34.54-1.34,1.48v.45c.15.03.69.14,1.15.14,1.11,0,1.49-.35,1.49-.97,0-.65-.35-1.09-1.31-1.09h0ZM28.36,11.9c-1.28,0-1.98-.6-1.98-.6,0,0,.12.51.12.89v3.32c-.14,0-2,.02-2-1.15V3.61c.4.2.81.29,1.23.29.81,0,1.6-.29,2.24-.29,2.2,0,3.46.97,3.46,2.68v2.95c0,1.66-1.43,2.66-3.07,2.66h0ZM29.44,6.52c0-.97-.37-1.45-1.65-1.45-.69,0-1.29.18-1.29.18v3.91c0,.75.83,1.28,1.66,1.28.74,0,1.28-.43,1.28-1.43v-2.49h0ZM37.68,10.82v-4.32c0-1-.54-1.43-1.28-1.43-.83,0-1.66.52-1.66,1.28v5.47s-2,0-2-1V0c.11,0,2-.05,2,1.15v2.14c0,.38-.12.92-.12.92,0,0,.74-.6,1.98-.6,1.65,0,3.07.86,3.07,2.66v5.55s-2-.03-2-1h0ZM44.43,8.69c-.49,0-.98-.09-1.45-.28v.55c0,.92.55,1.4,1.71,1.4,1.52,0,2.55-.65,2.57-1.57.32.46.48.88.48,1.26,0,1.11-1.28,1.84-3.04,1.84-2.34,0-3.71-1.01-3.71-2.71v-2.87c0-1.69,1.2-2.71,3.4-2.71s3.24,1.01,3.24,2.55c0,1.31-.77,2.52-3.2,2.52h0ZM44.32,5.07c-1.05,0-1.34.54-1.34,1.48v.45c.15.03.69.14,1.15.14,1.11,0,1.49-.35,1.49-.97,0-.65-.35-1.09-1.31-1.09h0ZM53.82,10.82v-4.44c0-.81-.38-1.28-1.48-1.28-.78,0-1.46.22-1.46.22v6.5s-2,0-2-1V3.61s.6.32,1.38.32,1.46-.32,2.29-.32c1.58,0,3.26.54,3.26,2.54v5.67s-2-.03-2-1h0ZM65.97,11.72h-2.81c-.15,0-1.65-.05-1.65-1V.72h4.46c2.46,0,4.78.81,4.78,3.78v3.43c0,2.97-2.32,3.78-4.78,3.78h0ZM68.69,4.64c0-1.83-1.2-2.4-2.72-2.4h-2.4v7.95h2.4c1.52,0,2.72-.58,2.72-2.41v-3.14h0ZM77.48,11.62c-.77,0-1.54.28-2.41.28-1.58,0-3.14-.58-3.14-2.41,0-2.87,4.12-2.12,4.75-3.34,0-.55-.31-1.05-1.49-1.05-1.29,0-2.46.45-2.46,1.74-.45-.6-.58-1.08-.58-1.49,0-1.34,1.8-1.74,3.06-1.74,2.26,0,3.46.95,3.46,2.63v5.63c-.4-.2-.8-.25-1.18-.25h0ZM76.73,7.72c-.35.82-2.81.37-2.81,1.74,0,.69.51,1.05,1.38,1.05.81,0,1.43-.28,1.43-.28v-2.51h0ZM86.51,6.72c-.37,3.58-3.35,5.32-3.38,5.33-.03-.02-3.03-1.75-3.38-5.33l-.32-3.03s1.94,0,2.06.97l.31,2.34c.26,2.23,1.34,3.03,1.34,3.03,0,0,1.08-.89,1.34-3.03l.31-2.34c.11-.97,2.08-.97,2.08-.97l-.34,3.03h0ZM87.92,10.82V3.69c.12,0,2,.02,2,1v7.13s-2,0-2-1h0ZM87.97,2.12V.85h1.35c.25,0,.57.23.57.45v1.28h-1.35c-.32,0-.57-.23-.57-.45h0ZM96.93,11.64c-.81,0-1.6.26-2.24.26-2.2,0-3.46-.97-3.46-2.68v-2.95c0-1.66,1.43-2.66,3.07-2.66,1.28,0,1.98.6,1.98.6,0,0-.12-.51-.12-.89V0c.14,0,2-.02,2,1.15v10.75c-.4-.2-.81-.26-1.23-.26h0ZM96.16,6.35c0-.75-.83-1.28-1.66-1.28-.74,0-1.28.43-1.28,1.43v2.49c0,.97.37,1.45,1.65,1.45.69,0,1.29-.18,1.29-.18v-3.91h0Z"/>
</svg>